# xmcd
#
# Track frame offsets:
#	150
#	17010
#	26005
#	42237
#	57407
#	63250
#	73905
#	82962
#	88597
#	97952
#	103187
#	117312
#	122282
#	133415
#
# Disc length: 2028 seconds
#
# Revision: 0
# Processed by: cddbd v1.5.1PL0 Copyright (c) Steve Scherf et al.
# Submitted via: audiograbber 1.81.02
#
DISCID=bc07ea0e
DTITLE=Tim Thomas und Olaf Franke - Mit Freddy durch die Bibel 8 - Eine Kreuzfa
DTITLE=hrt für Jona (www.gerth.de)
DYEAR=2004
DGENRE=Musical
TTITLE0=Freddy klärt Eugen auf
TTITLE1=Nee-nee-nee-Ninive
TTITLE2=Der Sturm und der Fisch
TTITLE3=Die Qual des Wals
TTITLE4=Jona geht doch nach Ninive
TTITLE5=Ninive Song
TTITLE6=Das Volk glaubt Jona
TTITLE7=Hoffnung für Ninive
TTITLE8=Das Volk kehrt um
TTITLE9=Hoffnung für Ninive-Reprise
TTITLE10=Der König macht es vor
TTITLE11=Ninive ist verschont
TTITLE12=Jona ist sauer
TTITLE13=Gott antwortet Jona
EXTD=
EXTT0=
EXTT1=
EXTT2=
EXTT3=
EXTT4=
EXTT5=
EXTT6=
EXTT7=
EXTT8=
EXTT9=
EXTT10=
EXTT11=
EXTT12=
EXTT13=
PLAYORDER=
